<svg xmlns="http://www.w3.org/2000/svg" version="1.1" xmlns:xlink="http://www.w3.org/1999/xlink" xmlns:svgjs="http://svgjs.com/svgjs" width="1800" height="1200" preserveAspectRatio="none" viewBox="0 0 1800 1200"><g mask="url(&quot;#SvgjsMask1038&quot;)" fill="none"><rect width="1800" height="1200" x="0" y="0" fill="rgba(6, 35, 49, 1)"></rect><path d="M119.66 50.31L184.62 87.81L184.62 162.81L119.66 200.31L54.71 162.81L54.71 87.81zM119.66 275.31L184.62 312.81L184.62 387.81L119.66 425.31L54.71 387.81L54.71 312.81zM119.66 725.31L184.62 762.81L184.62 837.81L119.66 875.31L54.71 837.81L54.71 762.81zM184.62 162.81L249.57 200.31L249.57 275.31L184.62 312.81L119.66 275.31L119.66 200.31zM249.57 725.31L314.52 762.81L314.52 837.81L249.57 875.31L184.62 837.81L184.62 762.81zM249.57 1175.31L314.52 1212.81L314.52 1287.81L249.57 1325.31L184.62 1287.81L184.62 1212.81zM379.48 50.31L444.43 87.81L444.43 162.81L379.48 200.31L314.52 162.81L314.52 87.81zM379.48 275.31L444.43 312.81L444.43 387.81L379.48 425.31L314.52 387.81L314.52 312.81zM314.52 387.81L379.48 425.31L379.48 500.31L314.52 537.81L249.57 500.31L249.57 425.31zM379.48 500.31L444.43 537.81L444.43 612.81L379.48 650.31L314.52 612.81L314.52 537.81zM379.48 725.31L444.43 762.81L444.43 837.81L379.48 875.31L314.52 837.81L314.52 762.81zM379.48 950.31L444.43 987.81L444.43 1062.81L379.48 1100.31L314.52 1062.81L314.52 987.81zM314.52 1062.81L379.48 1100.31L379.48 1175.31L314.52 1212.81L249.57 1175.31L249.57 1100.31zM444.43 -62.19L509.39 -24.69L509.39 50.31L444.43 87.81L379.48 50.31L379.48 -24.69zM639.29 50.31L704.25 87.81L704.25 162.81L639.29 200.31L574.34 162.81L574.34 87.81zM639.29 275.31L704.25 312.81L704.25 387.81L639.29 425.31L574.34 387.81L574.34 312.81zM574.34 387.81L639.29 425.31L639.29 500.31L574.34 537.81L509.39 500.31L509.39 425.31zM639.29 500.31L704.25 537.81L704.25 612.81L639.29 650.31L574.34 612.81L574.34 537.81zM639.29 725.31L704.25 762.81L704.25 837.81L639.29 875.31L574.34 837.81L574.34 762.81zM639.29 1175.31L704.25 1212.81L704.25 1287.81L639.29 1325.31L574.34 1287.81L574.34 1212.81zM769.2 50.31L834.16 87.81L834.16 162.81L769.2 200.31L704.25 162.81L704.25 87.81zM704.25 612.81L769.2 650.31L769.2 725.31L704.25 762.81L639.29 725.31L639.29 650.31zM769.2 725.31L834.16 762.81L834.16 837.81L769.2 875.31L704.25 837.81L704.25 762.81zM899.11 275.31L964.06 312.81L964.06 387.81L899.11 425.31L834.15 387.81L834.15 312.81zM834.15 612.81L899.11 650.31L899.11 725.31L834.15 762.81L769.2 725.31L769.2 650.31zM834.15 837.81L899.11 875.31L899.11 950.31L834.15 987.81L769.2 950.31L769.2 875.31zM964.06 387.81L1029.02 425.31L1029.02 500.31L964.06 537.81L899.11 500.31L899.11 425.31zM1029.02 500.31L1093.97 537.81L1093.97 612.81L1029.02 650.31L964.06 612.81L964.06 537.81zM1093.97 387.81L1158.92 425.31L1158.92 500.31L1093.97 537.81L1029.02 500.31L1029.02 425.31zM1093.97 837.81L1158.92 875.31L1158.92 950.31L1093.97 987.81L1029.02 950.31L1029.02 875.31zM1158.92 1175.31L1223.88 1212.81L1223.88 1287.81L1158.92 1325.31L1093.97 1287.81L1093.97 1212.81zM1288.83 275.31L1353.78 312.81L1353.78 387.81L1288.83 425.31L1223.88 387.81L1223.88 312.81zM1223.88 612.81L1288.83 650.31L1288.83 725.31L1223.88 762.81L1158.92 725.31L1158.92 650.31zM1223.88 837.81L1288.83 875.31L1288.83 950.31L1223.88 987.81L1158.92 950.31L1158.92 875.31zM1288.83 950.31L1353.78 987.81L1353.78 1062.81L1288.83 1100.31L1223.88 1062.81L1223.88 987.81zM1418.74 50.31L1483.69 87.81L1483.69 162.81L1418.74 200.31L1353.79 162.81L1353.79 87.81zM1418.74 275.31L1483.69 312.81L1483.69 387.81L1418.74 425.31L1353.79 387.81L1353.79 312.81zM1418.74 500.31L1483.69 537.81L1483.69 612.81L1418.74 650.31L1353.79 612.81L1353.79 537.81zM1353.79 612.81L1418.74 650.31L1418.74 725.31L1353.79 762.81L1288.83 725.31L1288.83 650.31zM1418.74 950.31L1483.69 987.81L1483.69 1062.81L1418.74 1100.31L1353.79 1062.81L1353.79 987.81zM1418.74 1175.31L1483.69 1212.81L1483.69 1287.81L1418.74 1325.31L1353.79 1287.81L1353.79 1212.81zM1483.69 -62.19L1548.65 -24.69L1548.65 50.31L1483.69 87.81L1418.74 50.31L1418.74 -24.69zM1548.65 50.31L1613.6 87.81L1613.6 162.81L1548.65 200.31L1483.69 162.81L1483.69 87.81zM1483.69 387.81L1548.65 425.31L1548.65 500.31L1483.69 537.81L1418.74 500.31L1418.74 425.31zM1483.69 837.81L1548.65 875.31L1548.65 950.31L1483.69 987.81L1418.74 950.31L1418.74 875.31zM1678.55 500.31L1743.51 537.81L1743.51 612.81L1678.55 650.31L1613.6 612.81L1613.6 537.81zM1678.55 950.31L1743.51 987.81L1743.51 1062.81L1678.55 1100.31L1613.6 1062.81L1613.6 987.81zM1613.6 1062.81L1678.55 1100.31L1678.55 1175.31L1613.6 1212.81L1548.65 1175.31L1548.65 1100.31zM1743.51 612.81L1808.46 650.31L1808.46 725.31L1743.51 762.81L1678.55 725.31L1678.55 650.31z" stroke="rgba(88, 38, 38, 1)" stroke-width="2"></path><path d="M112.16 50.31 a7.5 7.5 0 1 0 15 0 a7.5 7.5 0 1 0 -15 0zM177.12 87.81 a7.5 7.5 0 1 0 15 0 a7.5 7.5 0 1 0 -15 0zM177.12 162.81 a7.5 7.5 0 1 0 15 0 a7.5 7.5 0 1 0 -15 0zM112.16 200.31 a7.5 7.5 0 1 0 15 0 a7.5 7.5 0 1 0 -15 0zM47.21 162.81 a7.5 7.5 0 1 0 15 0 a7.5 7.5 0 1 0 -15 0zM47.21 87.81 a7.5 7.5 0 1 0 15 0 a7.5 7.5 0 1 0 -15 0zM112.16 275.31 a7.5 7.5 0 1 0 15 0 a7.5 7.5 0 1 0 -15 0zM177.12 312.81 a7.5 7.5 0 1 0 15 0 a7.5 7.5 0 1 0 -15 0zM177.12 387.81 a7.5 7.5 0 1 0 15 0 a7.5 7.5 0 1 0 -15 0zM112.16 425.31 a7.5 7.5 0 1 0 15 0 a7.5 7.5 0 1 0 -15 0zM47.21 387.81 a7.5 7.5 0 1 0 15 0 a7.5 7.5 0 1 0 -15 0zM47.21 312.81 a7.5 7.5 0 1 0 15 0 a7.5 7.5 0 1 0 -15 0zM112.16 725.31 a7.5 7.5 0 1 0 15 0 a7.5 7.5 0 1 0 -15 0zM177.12 762.81 a7.5 7.5 0 1 0 15 0 a7.5 7.5 0 1 0 -15 0zM177.12 837.81 a7.5 7.5 0 1 0 15 0 a7.5 7.5 0 1 0 -15 0zM112.16 875.31 a7.5 7.5 0 1 0 15 0 a7.5 7.5 0 1 0 -15 0zM47.21 837.81 a7.5 7.5 0 1 0 15 0 a7.5 7.5 0 1 0 -15 0zM47.21 762.81 a7.5 7.5 0 1 0 15 0 a7.5 7.5 0 1 0 -15 0zM242.07 200.31 a7.5 7.5 0 1 0 15 0 a7.5 7.5 0 1 0 -15 0zM242.07 275.31 a7.5 7.5 0 1 0 15 0 a7.5 7.5 0 1 0 -15 0zM242.07 725.31 a7.5 7.5 0 1 0 15 0 a7.5 7.5 0 1 0 -15 0zM307.02 762.81 a7.5 7.5 0 1 0 15 0 a7.5 7.5 0 1 0 -15 0zM307.02 837.81 a7.5 7.5 0 1 0 15 0 a7.5 7.5 0 1 0 -15 0zM242.07 875.31 a7.5 7.5 0 1 0 15 0 a7.5 7.5 0 1 0 -15 0zM242.07 1175.31 a7.5 7.5 0 1 0 15 0 a7.5 7.5 0 1 0 -15 0zM307.02 1212.81 a7.5 7.5 0 1 0 15 0 a7.5 7.5 0 1 0 -15 0zM307.02 1287.81 a7.5 7.5 0 1 0 15 0 a7.5 7.5 0 1 0 -15 0zM242.07 1325.31 a7.5 7.5 0 1 0 15 0 a7.5 7.5 0 1 0 -15 0zM177.12 1287.81 a7.5 7.5 0 1 0 15 0 a7.5 7.5 0 1 0 -15 0zM177.12 1212.81 a7.5 7.5 0 1 0 15 0 a7.5 7.5 0 1 0 -15 0zM371.98 50.31 a7.5 7.5 0 1 0 15 0 a7.5 7.5 0 1 0 -15 0zM436.93 87.81 a7.5 7.5 0 1 0 15 0 a7.5 7.5 0 1 0 -15 0zM436.93 162.81 a7.5 7.5 0 1 0 15 0 a7.5 7.5 0 1 0 -15 0zM371.98 200.31 a7.5 7.5 0 1 0 15 0 a7.5 7.5 0 1 0 -15 0zM307.02 162.81 a7.5 7.5 0 1 0 15 0 a7.5 7.5 0 1 0 -15 0zM307.02 87.81 a7.5 7.5 0 1 0 15 0 a7.5 7.5 0 1 0 -15 0zM371.98 275.31 a7.5 7.5 0 1 0 15 0 a7.5 7.5 0 1 0 -15 0zM436.93 312.81 a7.5 7.5 0 1 0 15 0 a7.5 7.5 0 1 0 -15 0zM436.93 387.81 a7.5 7.5 0 1 0 15 0 a7.5 7.5 0 1 0 -15 0zM371.98 425.31 a7.5 7.5 0 1 0 15 0 a7.5 7.5 0 1 0 -15 0zM307.02 387.81 a7.5 7.5 0 1 0 15 0 a7.5 7.5 0 1 0 -15 0zM307.02 312.81 a7.5 7.5 0 1 0 15 0 a7.5 7.5 0 1 0 -15 0zM371.98 500.31 a7.5 7.5 0 1 0 15 0 a7.5 7.5 0 1 0 -15 0zM307.02 537.81 a7.5 7.5 0 1 0 15 0 a7.5 7.5 0 1 0 -15 0zM242.07 500.31 a7.5 7.5 0 1 0 15 0 a7.5 7.5 0 1 0 -15 0zM242.07 425.31 a7.5 7.5 0 1 0 15 0 a7.5 7.5 0 1 0 -15 0zM436.93 537.81 a7.5 7.5 0 1 0 15 0 a7.5 7.5 0 1 0 -15 0zM436.93 612.81 a7.5 7.5 0 1 0 15 0 a7.5 7.5 0 1 0 -15 0zM371.98 650.31 a7.5 7.5 0 1 0 15 0 a7.5 7.5 0 1 0 -15 0zM307.02 612.81 a7.5 7.5 0 1 0 15 0 a7.5 7.5 0 1 0 -15 0zM371.98 725.31 a7.5 7.5 0 1 0 15 0 a7.5 7.5 0 1 0 -15 0zM436.93 762.81 a7.5 7.5 0 1 0 15 0 a7.5 7.5 0 1 0 -15 0zM436.93 837.81 a7.5 7.5 0 1 0 15 0 a7.5 7.5 0 1 0 -15 0zM371.98 875.31 a7.5 7.5 0 1 0 15 0 a7.5 7.5 0 1 0 -15 0zM371.98 950.31 a7.5 7.5 0 1 0 15 0 a7.5 7.5 0 1 0 -15 0zM436.93 987.81 a7.5 7.5 0 1 0 15 0 a7.5 7.5 0 1 0 -15 0zM436.93 1062.81 a7.5 7.5 0 1 0 15 0 a7.5 7.5 0 1 0 -15 0zM371.98 1100.31 a7.5 7.5 0 1 0 15 0 a7.5 7.5 0 1 0 -15 0zM307.02 1062.81 a7.5 7.5 0 1 0 15 0 a7.5 7.5 0 1 0 -15 0zM307.02 987.81 a7.5 7.5 0 1 0 15 0 a7.5 7.5 0 1 0 -15 0zM371.98 1175.31 a7.5 7.5 0 1 0 15 0 a7.5 7.5 0 1 0 -15 0zM242.07 1100.31 a7.5 7.5 0 1 0 15 0 a7.5 7.5 0 1 0 -15 0zM436.93 -62.19 a7.5 7.5 0 1 0 15 0 a7.5 7.5 0 1 0 -15 0zM501.89 -24.69 a7.5 7.5 0 1 0 15 0 a7.5 7.5 0 1 0 -15 0zM501.89 50.31 a7.5 7.5 0 1 0 15 0 a7.5 7.5 0 1 0 -15 0zM371.98 -24.69 a7.5 7.5 0 1 0 15 0 a7.5 7.5 0 1 0 -15 0zM631.79 50.31 a7.5 7.5 0 1 0 15 0 a7.5 7.5 0 1 0 -15 0zM696.75 87.81 a7.5 7.5 0 1 0 15 0 a7.5 7.5 0 1 0 -15 0zM696.75 162.81 a7.5 7.5 0 1 0 15 0 a7.5 7.5 0 1 0 -15 0zM631.79 200.31 a7.5 7.5 0 1 0 15 0 a7.5 7.5 0 1 0 -15 0zM566.84 162.81 a7.5 7.5 0 1 0 15 0 a7.5 7.5 0 1 0 -15 0zM566.84 87.81 a7.5 7.5 0 1 0 15 0 a7.5 7.5 0 1 0 -15 0zM631.79 275.31 a7.5 7.5 0 1 0 15 0 a7.5 7.5 0 1 0 -15 0zM696.75 312.81 a7.5 7.5 0 1 0 15 0 a7.5 7.5 0 1 0 -15 0zM696.75 387.81 a7.5 7.5 0 1 0 15 0 a7.5 7.5 0 1 0 -15 0zM631.79 425.31 a7.5 7.5 0 1 0 15 0 a7.5 7.5 0 1 0 -15 0zM566.84 387.81 a7.5 7.5 0 1 0 15 0 a7.5 7.5 0 1 0 -15 0zM566.84 312.81 a7.5 7.5 0 1 0 15 0 a7.5 7.5 0 1 0 -15 0zM631.79 500.31 a7.5 7.5 0 1 0 15 0 a7.5 7.5 0 1 0 -15 0zM566.84 537.81 a7.5 7.5 0 1 0 15 0 a7.5 7.5 0 1 0 -15 0zM501.89 500.31 a7.5 7.5 0 1 0 15 0 a7.5 7.5 0 1 0 -15 0zM501.89 425.31 a7.5 7.5 0 1 0 15 0 a7.5 7.5 0 1 0 -15 0zM696.75 537.81 a7.5 7.5 0 1 0 15 0 a7.5 7.5 0 1 0 -15 0zM696.75 612.81 a7.5 7.5 0 1 0 15 0 a7.5 7.5 0 1 0 -15 0zM631.79 650.31 a7.5 7.5 0 1 0 15 0 a7.5 7.5 0 1 0 -15 0zM566.84 612.81 a7.5 7.5 0 1 0 15 0 a7.5 7.5 0 1 0 -15 0zM631.79 725.31 a7.5 7.5 0 1 0 15 0 a7.5 7.5 0 1 0 -15 0zM696.75 762.81 a7.5 7.5 0 1 0 15 0 a7.5 7.5 0 1 0 -15 0zM696.75 837.81 a7.5 7.5 0 1 0 15 0 a7.5 7.5 0 1 0 -15 0zM631.79 875.31 a7.5 7.5 0 1 0 15 0 a7.5 7.5 0 1 0 -15 0zM566.84 837.81 a7.5 7.5 0 1 0 15 0 a7.5 7.5 0 1 0 -15 0zM566.84 762.81 a7.5 7.5 0 1 0 15 0 a7.5 7.5 0 1 0 -15 0zM631.79 1175.31 a7.5 7.5 0 1 0 15 0 a7.5 7.5 0 1 0 -15 0zM696.75 1212.81 a7.5 7.5 0 1 0 15 0 a7.5 7.5 0 1 0 -15 0zM696.75 1287.81 a7.5 7.5 0 1 0 15 0 a7.5 7.5 0 1 0 -15 0zM631.79 1325.31 a7.5 7.5 0 1 0 15 0 a7.5 7.5 0 1 0 -15 0zM566.84 1287.81 a7.5 7.5 0 1 0 15 0 a7.5 7.5 0 1 0 -15 0zM566.84 1212.81 a7.5 7.5 0 1 0 15 0 a7.5 7.5 0 1 0 -15 0zM761.7 50.31 a7.5 7.5 0 1 0 15 0 a7.5 7.5 0 1 0 -15 0zM826.66 87.81 a7.5 7.5 0 1 0 15 0 a7.5 7.5 0 1 0 -15 0zM826.66 162.81 a7.5 7.5 0 1 0 15 0 a7.5 7.5 0 1 0 -15 0zM761.7 200.31 a7.5 7.5 0 1 0 15 0 a7.5 7.5 0 1 0 -15 0zM761.7 650.31 a7.5 7.5 0 1 0 15 0 a7.5 7.5 0 1 0 -15 0zM761.7 725.31 a7.5 7.5 0 1 0 15 0 a7.5 7.5 0 1 0 -15 0zM826.66 762.81 a7.5 7.5 0 1 0 15 0 a7.5 7.5 0 1 0 -15 0zM826.66 837.81 a7.5 7.5 0 1 0 15 0 a7.5 7.5 0 1 0 -15 0zM761.7 875.31 a7.5 7.5 0 1 0 15 0 a7.5 7.5 0 1 0 -15 0zM891.61 275.31 a7.5 7.5 0 1 0 15 0 a7.5 7.5 0 1 0 -15 0zM956.56 312.81 a7.5 7.5 0 1 0 15 0 a7.5 7.5 0 1 0 -15 0zM956.56 387.81 a7.5 7.5 0 1 0 15 0 a7.5 7.5 0 1 0 -15 0zM891.61 425.31 a7.5 7.5 0 1 0 15 0 a7.5 7.5 0 1 0 -15 0zM826.65 387.81 a7.5 7.5 0 1 0 15 0 a7.5 7.5 0 1 0 -15 0zM826.65 312.81 a7.5 7.5 0 1 0 15 0 a7.5 7.5 0 1 0 -15 0zM826.65 612.81 a7.5 7.5 0 1 0 15 0 a7.5 7.5 0 1 0 -15 0zM891.61 650.31 a7.5 7.5 0 1 0 15 0 a7.5 7.5 0 1 0 -15 0zM891.61 725.31 a7.5 7.5 0 1 0 15 0 a7.5 7.5 0 1 0 -15 0zM826.65 762.81 a7.5 7.5 0 1 0 15 0 a7.5 7.5 0 1 0 -15 0zM826.65 837.81 a7.5 7.5 0 1 0 15 0 a7.5 7.5 0 1 0 -15 0zM891.61 875.31 a7.5 7.5 0 1 0 15 0 a7.5 7.5 0 1 0 -15 0zM891.61 950.31 a7.5 7.5 0 1 0 15 0 a7.5 7.5 0 1 0 -15 0zM826.65 987.81 a7.5 7.5 0 1 0 15 0 a7.5 7.5 0 1 0 -15 0zM761.7 950.31 a7.5 7.5 0 1 0 15 0 a7.5 7.5 0 1 0 -15 0zM1021.52 425.31 a7.5 7.5 0 1 0 15 0 a7.5 7.5 0 1 0 -15 0zM1021.52 500.31 a7.5 7.5 0 1 0 15 0 a7.5 7.5 0 1 0 -15 0zM956.56 537.81 a7.5 7.5 0 1 0 15 0 a7.5 7.5 0 1 0 -15 0zM891.61 500.31 a7.5 7.5 0 1 0 15 0 a7.5 7.5 0 1 0 -15 0zM1086.47 537.81 a7.5 7.5 0 1 0 15 0 a7.5 7.5 0 1 0 -15 0zM1086.47 612.81 a7.5 7.5 0 1 0 15 0 a7.5 7.5 0 1 0 -15 0zM1021.52 650.31 a7.5 7.5 0 1 0 15 0 a7.5 7.5 0 1 0 -15 0zM956.56 612.81 a7.5 7.5 0 1 0 15 0 a7.5 7.5 0 1 0 -15 0zM1086.47 387.81 a7.5 7.5 0 1 0 15 0 a7.5 7.5 0 1 0 -15 0zM1151.42 425.31 a7.5 7.5 0 1 0 15 0 a7.5 7.5 0 1 0 -15 0zM1151.42 500.31 a7.5 7.5 0 1 0 15 0 a7.5 7.5 0 1 0 -15 0zM1086.47 837.81 a7.5 7.5 0 1 0 15 0 a7.5 7.5 0 1 0 -15 0zM1151.42 875.31 a7.5 7.5 0 1 0 15 0 a7.5 7.5 0 1 0 -15 0zM1151.42 950.31 a7.5 7.5 0 1 0 15 0 a7.5 7.5 0 1 0 -15 0zM1086.47 987.81 a7.5 7.5 0 1 0 15 0 a7.5 7.5 0 1 0 -15 0zM1021.52 950.31 a7.5 7.5 0 1 0 15 0 a7.5 7.5 0 1 0 -15 0zM1021.52 875.31 a7.5 7.5 0 1 0 15 0 a7.5 7.5 0 1 0 -15 0zM1151.42 1175.31 a7.5 7.5 0 1 0 15 0 a7.5 7.5 0 1 0 -15 0zM1216.38 1212.81 a7.5 7.5 0 1 0 15 0 a7.5 7.5 0 1 0 -15 0zM1216.38 1287.81 a7.5 7.5 0 1 0 15 0 a7.5 7.5 0 1 0 -15 0zM1151.42 1325.31 a7.5 7.5 0 1 0 15 0 a7.5 7.5 0 1 0 -15 0zM1086.47 1287.81 a7.5 7.5 0 1 0 15 0 a7.5 7.5 0 1 0 -15 0zM1086.47 1212.81 a7.5 7.5 0 1 0 15 0 a7.5 7.5 0 1 0 -15 0zM1281.33 275.31 a7.5 7.5 0 1 0 15 0 a7.5 7.5 0 1 0 -15 0zM1346.28 312.81 a7.5 7.5 0 1 0 15 0 a7.5 7.5 0 1 0 -15 0zM1346.28 387.81 a7.5 7.5 0 1 0 15 0 a7.5 7.5 0 1 0 -15 0zM1281.33 425.31 a7.5 7.5 0 1 0 15 0 a7.5 7.5 0 1 0 -15 0zM1216.38 387.81 a7.5 7.5 0 1 0 15 0 a7.5 7.5 0 1 0 -15 0zM1216.38 312.81 a7.5 7.5 0 1 0 15 0 a7.5 7.5 0 1 0 -15 0zM1216.38 612.81 a7.5 7.5 0 1 0 15 0 a7.5 7.5 0 1 0 -15 0zM1281.33 650.31 a7.5 7.5 0 1 0 15 0 a7.5 7.5 0 1 0 -15 0zM1281.33 725.31 a7.5 7.5 0 1 0 15 0 a7.5 7.5 0 1 0 -15 0zM1216.38 762.81 a7.5 7.5 0 1 0 15 0 a7.5 7.5 0 1 0 -15 0zM1151.42 725.31 a7.5 7.5 0 1 0 15 0 a7.5 7.5 0 1 0 -15 0zM1151.42 650.31 a7.5 7.5 0 1 0 15 0 a7.5 7.5 0 1 0 -15 0zM1216.38 837.81 a7.5 7.5 0 1 0 15 0 a7.5 7.5 0 1 0 -15 0zM1281.33 875.31 a7.5 7.5 0 1 0 15 0 a7.5 7.5 0 1 0 -15 0zM1281.33 950.31 a7.5 7.5 0 1 0 15 0 a7.5 7.5 0 1 0 -15 0zM1216.38 987.81 a7.5 7.5 0 1 0 15 0 a7.5 7.5 0 1 0 -15 0zM1346.28 987.81 a7.5 7.5 0 1 0 15 0 a7.5 7.5 0 1 0 -15 0zM1346.28 1062.81 a7.5 7.5 0 1 0 15 0 a7.5 7.5 0 1 0 -15 0zM1281.33 1100.31 a7.5 7.5 0 1 0 15 0 a7.5 7.5 0 1 0 -15 0zM1216.38 1062.81 a7.5 7.5 0 1 0 15 0 a7.5 7.5 0 1 0 -15 0zM1411.24 50.31 a7.5 7.5 0 1 0 15 0 a7.5 7.5 0 1 0 -15 0zM1476.19 87.81 a7.5 7.5 0 1 0 15 0 a7.5 7.5 0 1 0 -15 0zM1476.19 162.81 a7.5 7.5 0 1 0 15 0 a7.5 7.5 0 1 0 -15 0zM1411.24 200.31 a7.5 7.5 0 1 0 15 0 a7.5 7.5 0 1 0 -15 0zM1346.29 162.81 a7.5 7.5 0 1 0 15 0 a7.5 7.5 0 1 0 -15 0zM1346.29 87.81 a7.5 7.5 0 1 0 15 0 a7.5 7.5 0 1 0 -15 0zM1411.24 275.31 a7.5 7.5 0 1 0 15 0 a7.5 7.5 0 1 0 -15 0zM1476.19 312.81 a7.5 7.5 0 1 0 15 0 a7.5 7.5 0 1 0 -15 0zM1476.19 387.81 a7.5 7.5 0 1 0 15 0 a7.5 7.5 0 1 0 -15 0zM1411.24 425.31 a7.5 7.5 0 1 0 15 0 a7.5 7.5 0 1 0 -15 0zM1346.29 387.81 a7.5 7.5 0 1 0 15 0 a7.5 7.5 0 1 0 -15 0zM1346.29 312.81 a7.5 7.5 0 1 0 15 0 a7.5 7.5 0 1 0 -15 0zM1411.24 500.31 a7.5 7.5 0 1 0 15 0 a7.5 7.5 0 1 0 -15 0zM1476.19 537.81 a7.5 7.5 0 1 0 15 0 a7.5 7.5 0 1 0 -15 0zM1476.19 612.81 a7.5 7.5 0 1 0 15 0 a7.5 7.5 0 1 0 -15 0zM1411.24 650.31 a7.5 7.5 0 1 0 15 0 a7.5 7.5 0 1 0 -15 0zM1346.29 612.81 a7.5 7.5 0 1 0 15 0 a7.5 7.5 0 1 0 -15 0zM1346.29 537.81 a7.5 7.5 0 1 0 15 0 a7.5 7.5 0 1 0 -15 0zM1411.24 725.31 a7.5 7.5 0 1 0 15 0 a7.5 7.5 0 1 0 -15 0zM1346.29 762.81 a7.5 7.5 0 1 0 15 0 a7.5 7.5 0 1 0 -15 0zM1411.24 950.31 a7.5 7.5 0 1 0 15 0 a7.5 7.5 0 1 0 -15 0zM1476.19 987.81 a7.5 7.5 0 1 0 15 0 a7.5 7.5 0 1 0 -15 0zM1476.19 1062.81 a7.5 7.5 0 1 0 15 0 a7.5 7.5 0 1 0 -15 0zM1411.24 1100.31 a7.5 7.5 0 1 0 15 0 a7.5 7.5 0 1 0 -15 0zM1346.29 1062.81 a7.5 7.5 0 1 0 15 0 a7.5 7.5 0 1 0 -15 0zM1346.29 987.81 a7.5 7.5 0 1 0 15 0 a7.5 7.5 0 1 0 -15 0zM1411.24 1175.31 a7.5 7.5 0 1 0 15 0 a7.5 7.5 0 1 0 -15 0zM1476.19 1212.81 a7.5 7.5 0 1 0 15 0 a7.5 7.5 0 1 0 -15 0zM1476.19 1287.81 a7.5 7.5 0 1 0 15 0 a7.5 7.5 0 1 0 -15 0zM1411.24 1325.31 a7.5 7.5 0 1 0 15 0 a7.5 7.5 0 1 0 -15 0zM1346.29 1287.81 a7.5 7.5 0 1 0 15 0 a7.5 7.5 0 1 0 -15 0zM1346.29 1212.81 a7.5 7.5 0 1 0 15 0 a7.5 7.5 0 1 0 -15 0zM1476.19 -62.19 a7.5 7.5 0 1 0 15 0 a7.5 7.5 0 1 0 -15 0zM1541.15 -24.69 a7.5 7.5 0 1 0 15 0 a7.5 7.5 0 1 0 -15 0zM1541.15 50.31 a7.5 7.5 0 1 0 15 0 a7.5 7.5 0 1 0 -15 0zM1411.24 -24.69 a7.5 7.5 0 1 0 15 0 a7.5 7.5 0 1 0 -15 0zM1606.1 87.81 a7.5 7.5 0 1 0 15 0 a7.5 7.5 0 1 0 -15 0zM1606.1 162.81 a7.5 7.5 0 1 0 15 0 a7.5 7.5 0 1 0 -15 0zM1541.15 200.31 a7.5 7.5 0 1 0 15 0 a7.5 7.5 0 1 0 -15 0zM1541.15 425.31 a7.5 7.5 0 1 0 15 0 a7.5 7.5 0 1 0 -15 0zM1541.15 500.31 a7.5 7.5 0 1 0 15 0 a7.5 7.5 0 1 0 -15 0zM1476.19 837.81 a7.5 7.5 0 1 0 15 0 a7.5 7.5 0 1 0 -15 0zM1541.15 875.31 a7.5 7.5 0 1 0 15 0 a7.5 7.5 0 1 0 -15 0zM1541.15 950.31 a7.5 7.5 0 1 0 15 0 a7.5 7.5 0 1 0 -15 0zM1411.24 875.31 a7.5 7.5 0 1 0 15 0 a7.5 7.5 0 1 0 -15 0zM1671.05 500.31 a7.5 7.5 0 1 0 15 0 a7.5 7.5 0 1 0 -15 0zM1736.01 537.81 a7.5 7.5 0 1 0 15 0 a7.5 7.5 0 1 0 -15 0zM1736.01 612.81 a7.5 7.5 0 1 0 15 0 a7.5 7.5 0 1 0 -15 0zM1671.05 650.31 a7.5 7.5 0 1 0 15 0 a7.5 7.5 0 1 0 -15 0zM1606.1 612.81 a7.5 7.5 0 1 0 15 0 a7.5 7.5 0 1 0 -15 0zM1606.1 537.81 a7.5 7.5 0 1 0 15 0 a7.5 7.5 0 1 0 -15 0zM1671.05 950.31 a7.5 7.5 0 1 0 15 0 a7.5 7.5 0 1 0 -15 0zM1736.01 987.81 a7.5 7.5 0 1 0 15 0 a7.5 7.5 0 1 0 -15 0zM1736.01 1062.81 a7.5 7.5 0 1 0 15 0 a7.5 7.5 0 1 0 -15 0zM1671.05 1100.31 a7.5 7.5 0 1 0 15 0 a7.5 7.5 0 1 0 -15 0zM1606.1 1062.81 a7.5 7.5 0 1 0 15 0 a7.5 7.5 0 1 0 -15 0zM1606.1 987.81 a7.5 7.5 0 1 0 15 0 a7.5 7.5 0 1 0 -15 0zM1671.05 1175.31 a7.5 7.5 0 1 0 15 0 a7.5 7.5 0 1 0 -15 0zM1606.1 1212.81 a7.5 7.5 0 1 0 15 0 a7.5 7.5 0 1 0 -15 0zM1541.15 1175.31 a7.5 7.5 0 1 0 15 0 a7.5 7.5 0 1 0 -15 0zM1541.15 1100.31 a7.5 7.5 0 1 0 15 0 a7.5 7.5 0 1 0 -15 0zM1800.96 650.31 a7.5 7.5 0 1 0 15 0 a7.5 7.5 0 1 0 -15 0zM1800.96 725.31 a7.5 7.5 0 1 0 15 0 a7.5 7.5 0 1 0 -15 0zM1736.01 762.81 a7.5 7.5 0 1 0 15 0 a7.5 7.5 0 1 0 -15 0zM1671.05 725.31 a7.5 7.5 0 1 0 15 0 a7.5 7.5 0 1 0 -15 0z" fill="rgba(88, 38, 38, 1)"></path><path d="M55.12 64.15L98.43 89.15L98.43 139.15L55.12 164.15L11.82 139.15L11.82 89.15zM11.82 589.15L55.12 614.15L55.12 664.15L11.82 689.15L-31.48 664.15L-31.48 614.15zM11.82 1189.15L55.12 1214.15L55.12 1264.15L11.82 1289.15L-31.48 1264.15L-31.48 1214.15zM98.43 -10.85L141.73 14.15L141.73 64.15L98.43 89.15L55.12 64.15L55.12 14.15zM141.73 64.15L185.03 89.15L185.03 139.15L141.73 164.15L98.43 139.15L98.43 89.15zM141.73 214.15L185.03 239.15L185.03 289.15L141.73 314.15L98.43 289.15L98.43 239.15zM98.43 589.15L141.73 614.15L141.73 664.15L98.43 689.15L55.12 664.15L55.12 614.15zM141.73 964.15L185.03 989.15L185.03 1039.15L141.73 1064.15L98.43 1039.15L98.43 989.15zM98.43 1189.15L141.73 1214.15L141.73 1264.15L98.43 1289.15L55.12 1264.15L55.12 1214.15zM185.03 289.15L228.33 314.15L228.33 364.15L185.03 389.15L141.73 364.15L141.73 314.15zM271.63 289.15L314.94 314.15L314.94 364.15L271.63 389.15L228.33 364.15L228.33 314.15zM358.24 -10.85L401.54 14.15L401.54 64.15L358.24 89.15L314.94 64.15L314.94 14.15zM358.24 139.15L401.54 164.15L401.54 214.15L358.24 239.15L314.94 214.15L314.94 164.15zM401.54 514.15L444.85 539.15L444.85 589.15L401.54 614.15L358.24 589.15L358.24 539.15zM401.54 814.15L444.85 839.15L444.85 889.15L401.54 914.15L358.24 889.15L358.24 839.15zM358.24 889.15L401.54 914.15L401.54 964.15L358.24 989.15L314.94 964.15L314.94 914.15zM358.24 1039.15L401.54 1064.15L401.54 1114.15L358.24 1139.15L314.94 1114.15L314.94 1064.15zM488.15 64.15L531.45 89.15L531.45 139.15L488.15 164.15L444.85 139.15L444.85 89.15zM444.85 289.15L488.15 314.15L488.15 364.15L444.85 389.15L401.54 364.15L401.54 314.15zM488.15 364.15L531.45 389.15L531.45 439.15L488.15 464.15L444.85 439.15L444.85 389.15zM488.15 664.15L531.45 689.15L531.45 739.15L488.15 764.15L444.85 739.15L444.85 689.15zM488.15 814.15L531.45 839.15L531.45 889.15L488.15 914.15L444.85 889.15L444.85 839.15zM444.85 1039.15L488.15 1064.15L488.15 1114.15L444.85 1139.15L401.54 1114.15L401.54 1064.15zM488.15 1114.15L531.45 1139.15L531.45 1189.15L488.15 1214.15L444.85 1189.15L444.85 1139.15zM574.75 514.15L618.06 539.15L618.06 589.15L574.75 614.15L531.45 589.15L531.45 539.15zM661.36 214.15L704.66 239.15L704.66 289.15L661.36 314.15L618.06 289.15L618.06 239.15zM661.36 664.15L704.66 689.15L704.66 739.15L661.36 764.15L618.06 739.15L618.06 689.15zM618.06 1039.15L661.36 1064.15L661.36 1114.15L618.06 1139.15L574.75 1114.15L574.75 1064.15zM704.66 -10.85L747.96 14.15L747.96 64.15L704.66 89.15L661.36 64.15L661.36 14.15zM704.66 289.15L747.96 314.15L747.96 364.15L704.66 389.15L661.36 364.15L661.36 314.15zM747.96 514.15L791.27 539.15L791.27 589.15L747.96 614.15L704.66 589.15L704.66 539.15zM704.66 589.15L747.96 614.15L747.96 664.15L704.66 689.15L661.36 664.15L661.36 614.15zM791.27 -10.85L834.57 14.15L834.57 64.15L791.27 89.15L747.96 64.15L747.96 14.15zM834.57 214.15L877.87 239.15L877.87 289.15L834.57 314.15L791.27 289.15L791.27 239.15zM791.27 439.15L834.57 464.15L834.57 514.15L791.27 539.15L747.96 514.15L747.96 464.15zM791.27 1189.15L834.57 1214.15L834.57 1264.15L791.27 1289.15L747.96 1264.15L747.96 1214.15zM877.87 289.15L921.17 314.15L921.17 364.15L877.87 389.15L834.57 364.15L834.57 314.15zM877.87 889.15L921.17 914.15L921.17 964.15L877.87 989.15L834.57 964.15L834.57 914.15zM877.87 1039.15L921.17 1064.15L921.17 1114.15L877.87 1139.15L834.57 1114.15L834.57 1064.15zM877.87 1189.15L921.17 1214.15L921.17 1264.15L877.87 1289.15L834.57 1264.15L834.57 1214.15zM1007.78 64.15L1051.08 89.15L1051.08 139.15L1007.78 164.15L964.48 139.15L964.48 89.15zM964.48 589.15L1007.78 614.15L1007.78 664.15L964.48 689.15L921.17 664.15L921.17 614.15zM964.48 1039.15L1007.78 1064.15L1007.78 1114.15L964.48 1139.15L921.17 1114.15L921.17 1064.15zM1051.08 439.15L1094.38 464.15L1094.38 514.15L1051.08 539.15L1007.78 514.15L1007.78 464.15zM1094.38 514.15L1137.68 539.15L1137.68 589.15L1094.38 614.15L1051.08 589.15L1051.08 539.15zM1137.68 139.15L1180.99 164.15L1180.99 214.15L1137.68 239.15L1094.38 214.15L1094.38 164.15zM1137.68 439.15L1180.99 464.15L1180.99 514.15L1137.68 539.15L1094.38 514.15L1094.38 464.15zM1137.68 739.15L1180.99 764.15L1180.99 814.15L1137.68 839.15L1094.38 814.15L1094.38 764.15zM1137.68 1039.15L1180.99 1064.15L1180.99 1114.15L1137.68 1139.15L1094.38 1114.15L1094.38 1064.15zM1267.59 64.15L1310.89 89.15L1310.89 139.15L1267.59 164.15L1224.29 139.15L1224.29 89.15zM1267.59 664.15L1310.89 689.15L1310.89 739.15L1267.59 764.15L1224.29 739.15L1224.29 689.15zM1267.59 1114.15L1310.89 1139.15L1310.89 1189.15L1267.59 1214.15L1224.29 1189.15L1224.29 1139.15zM1310.89 -10.85L1354.2 14.15L1354.2 64.15L1310.89 89.15L1267.59 64.15L1267.59 14.15zM1310.89 139.15L1354.2 164.15L1354.2 214.15L1310.89 239.15L1267.59 214.15L1267.59 164.15zM1354.2 214.15L1397.5 239.15L1397.5 289.15L1354.2 314.15L1310.89 289.15L1310.89 239.15zM1310.89 439.15L1354.2 464.15L1354.2 514.15L1310.89 539.15L1267.59 514.15L1267.59 464.15zM1354.2 514.15L1397.5 539.15L1397.5 589.15L1354.2 614.15L1310.89 589.15L1310.89 539.15zM1310.89 739.15L1354.2 764.15L1354.2 814.15L1310.89 839.15L1267.59 814.15L1267.59 764.15zM1397.5 589.15L1440.8 614.15L1440.8 664.15L1397.5 689.15L1354.2 664.15L1354.2 614.15zM1397.5 739.15L1440.8 764.15L1440.8 814.15L1397.5 839.15L1354.2 814.15L1354.2 764.15zM1440.8 814.15L1484.11 839.15L1484.11 889.15L1440.8 914.15L1397.5 889.15L1397.5 839.15zM1440.8 1114.15L1484.11 1139.15L1484.11 1189.15L1440.8 1214.15L1397.5 1189.15L1397.5 1139.15zM1397.5 1189.15L1440.8 1214.15L1440.8 1264.15L1397.5 1289.15L1354.2 1264.15L1354.2 1214.15zM1527.41 64.15L1570.71 89.15L1570.71 139.15L1527.41 164.15L1484.11 139.15L1484.11 89.15zM1484.11 889.15L1527.41 914.15L1527.41 964.15L1484.11 989.15L1440.8 964.15L1440.8 914.15zM1484.11 1039.15L1527.41 1064.15L1527.41 1114.15L1484.11 1139.15L1440.8 1114.15L1440.8 1064.15zM1527.41 1114.15L1570.71 1139.15L1570.71 1189.15L1527.41 1214.15L1484.11 1189.15L1484.11 1139.15zM1614.01 64.15L1657.32 89.15L1657.32 139.15L1614.01 164.15L1570.71 139.15L1570.71 89.15zM1570.71 139.15L1614.01 164.15L1614.01 214.15L1570.71 239.15L1527.41 214.15L1527.41 164.15zM1614.01 364.15L1657.32 389.15L1657.32 439.15L1614.01 464.15L1570.71 439.15L1570.71 389.15zM1570.71 439.15L1614.01 464.15L1614.01 514.15L1570.71 539.15L1527.41 514.15L1527.41 464.15zM1614.01 814.15L1657.32 839.15L1657.32 889.15L1614.01 914.15L1570.71 889.15L1570.71 839.15zM1657.32 139.15L1700.62 164.15L1700.62 214.15L1657.32 239.15L1614.01 214.15L1614.01 164.15zM1700.62 214.15L1743.92 239.15L1743.92 289.15L1700.62 314.15L1657.32 289.15L1657.32 239.15zM1657.32 739.15L1700.62 764.15L1700.62 814.15L1657.32 839.15L1614.01 814.15L1614.01 764.15zM1787.22 364.15L1830.53 389.15L1830.53 439.15L1787.22 464.15L1743.92 439.15L1743.92 389.15zM1743.92 439.15L1787.22 464.15L1787.22 514.15L1743.92 539.15L1700.62 514.15L1700.62 464.15zM1787.22 514.15L1830.53 539.15L1830.53 589.15L1787.22 614.15L1743.92 589.15L1743.92 539.15zM1743.92 739.15L1787.22 764.15L1787.22 814.15L1743.92 839.15L1700.62 814.15L1700.62 764.15z" stroke="rgba(255, 244, 238, 1)" stroke-width="2"></path></g><defs><mask id="SvgjsMask1038"><rect width="1800" height="1200" fill="#ffffff"></rect></mask></defs></svg>